<?xml version="1.0" encoding="UTF-8"?>
<svg id="Layer_2" data-name="Layer 2" xmlns="http://www.w3.org/2000/svg" viewBox="0 0 774.45 291.48">
  <defs>
    <style>
      .cls-1 {
        letter-spacing: -.02em;
      }

      .cls-2 {
        font-size: 6.86px;
      }

      .cls-2, .cls-3, .cls-4, .cls-5, .cls-6, .cls-7, .cls-8 {
        isolation: isolate;
      }

      .cls-2, .cls-3, .cls-6, .cls-7 {
        font-family: TrebuchetMS, 'Trebuchet MS';
      }

      .cls-9 {
        letter-spacing: -.12em;
      }

      .cls-10 {
        letter-spacing: -.06em;
      }

      .cls-11 {
        letter-spacing: -.04em;
      }

      .cls-12 {
        letter-spacing: -.05em;
      }

      .cls-3 {
        font-size: 11.22px;
      }

      .cls-3, .cls-7 {
        fill: #333;
      }

      .cls-13 {
        letter-spacing: -.02em;
      }

      .cls-14 {
        letter-spacing: 0em;
      }

      .cls-15 {
        letter-spacing: -.06em;
      }

      .cls-16 {
        opacity: .8;
      }

      .cls-17 {
        fill: #487e3a;
        stroke: #13540c;
        stroke-width: 2px;
      }

      .cls-18 {
        letter-spacing: -.05em;
      }

      .cls-19 {
        letter-spacing: -.06em;
      }

      .cls-5 {
        fill: #6eaa49;
      }

      .cls-5, .cls-8 {
        opacity: .2;
      }

      .cls-6 {
        font-size: 8px;
      }

      .cls-20 {
        letter-spacing: -.04em;
      }

      .cls-21 {
        letter-spacing: 0em;
      }

      .cls-22 {
        letter-spacing: 0em;
      }

      .cls-23, .cls-24 {
        fill: none;
      }

      .cls-25 {
        letter-spacing: 0em;
      }

      .cls-26 {
        letter-spacing: -.05em;
      }

      .cls-27 {
        letter-spacing: -.06em;
      }

      .cls-28 {
        letter-spacing: -.05em;
      }

      .cls-7 {
        font-size: 6.86px;
      }

      .cls-24 {
        stroke: #000;
      }

      .cls-29 {
        letter-spacing: -.12em;
      }

      .cls-30 {
        letter-spacing: 0em;
      }

      .cls-31 {
        letter-spacing: -.02em;
      }

      .cls-8 {
        fill: #fff;
      }

      .cls-32 {
        letter-spacing: -.04em;
      }
    </style>
  </defs>
  <g id="Layer_1-2" data-name="Layer 1">
    <g id="viewport-20241204145418361">
      <g>
        <path class="cls-23" d="m133.06,15.86v263.66h618.02V15.86"/>
        <g class="cls-16">
          <line class="cls-24" x1="133.06" y1="279.51" x2="133.06" y2="15.86"/>
          <text class="cls-6" transform="translate(119.14 289.38) scale(.88 1)"><tspan x="0" y="0">Oct 2024</tspan></text>
        </g>
        <g class="cls-16">
          <line class="cls-24" x1="208.53" y1="279.51" x2="208.53" y2="15.86"/>
          <text class="cls-6" transform="translate(194.27 289.38) scale(.88 1)"><tspan x="0" y="0">Nov 2024</tspan></text>
        </g>
        <g class="cls-16">
          <line class="cls-24" x1="281.27" y1="279.51" x2="281.27" y2="15.86"/>
          <text class="cls-6" transform="translate(267.05 289.38) scale(.88 1)"><tspan x="0" y="0">Dec 2024</tspan></text>
        </g>
        <g class="cls-16">
          <line class="cls-24" x1="356.75" y1="279.51" x2="356.75" y2="15.86"/>
          <text class="cls-6" transform="translate(342.89 289.38) scale(.88 1)"><tspan x="0" y="0">Jan 2025</tspan></text>
        </g>
        <g class="cls-16">
          <line class="cls-24" x1="432.22" y1="279.51" x2="432.22" y2="15.86"/>
          <text class="cls-6" transform="translate(418.09 289.38) scale(.88 1)"><tspan x="0" y="0">Feb 2025</tspan></text>
        </g>
        <g class="cls-16">
          <line class="cls-24" x1="500.59" y1="279.51" x2="500.59" y2="15.86"/>
          <text class="cls-6" transform="translate(486.47 289.38) scale(.88 1)"><tspan x="0" y="0">Mar 2025</tspan></text>
        </g>
        <g class="cls-16">
          <line class="cls-24" x1="576.06" y1="279.51" x2="576.06" y2="15.86"/>
          <text class="cls-6" transform="translate(562.25 289.38) scale(.88 1)"><tspan x="0" y="0">Apr 2025</tspan></text>
        </g>
        <g class="cls-16">
          <line class="cls-24" x1="648.8" y1="279.51" x2="648.8" y2="15.86"/>
          <text class="cls-6" transform="translate(634.32 289.38) scale(.88 1)"><tspan x="0" y="0">May 2025</tspan></text>
        </g>
        <g class="cls-16">
          <line class="cls-24" x1="724.28" y1="279.51" x2="724.28" y2="15.86"/>
          <text class="cls-6" transform="translate(710.35 289.38) scale(.88 1)"><tspan x="0" y="0">Jun 2025</tspan></text>
        </g>
      </g>
      <g>
        <rect class="cls-5" y="23.96" width="774.45" height="14.96"/>
        <rect class="cls-5" y="38.92" width="774.45" height="14.96"/>
        <rect class="cls-5" y="53.88" width="774.45" height="14.96"/>
        <rect class="cls-8" y="68.84" width="774.45" height="14.96"/>
        <rect class="cls-8" y="83.8" width="774.45" height="14.96"/>
        <rect class="cls-8" y="98.75" width="774.45" height="14.96"/>
        <rect class="cls-5" y="113.71" width="774.45" height="14.96"/>
        <rect class="cls-5" y="128.67" width="774.45" height="14.96"/>
        <rect class="cls-5" y="143.63" width="774.45" height="14.96"/>
        <rect class="cls-8" y="158.59" width="774.45" height="14.96"/>
        <rect class="cls-8" y="173.55" width="774.45" height="14.96"/>
        <rect class="cls-8" y="188.51" width="774.45" height="14.96"/>
        <rect class="cls-5" y="203.47" width="774.45" height="14.96"/>
        <rect class="cls-5" y="218.43" width="774.45" height="14.96"/>
        <rect class="cls-8" y="233.39" width="774.45" height="14.96"/>
        <rect class="cls-8" y="248.35" width="774.45" height="14.96"/>
        <rect class="cls-8" y="263.31" width="774.45" height="14.96"/>
      </g>
      <g>
        <path id="p1" class="cls-17" d="m135.39,25.21h30.62c.91,0,1.64.84,1.64,1.87v8.73c0,1.03-.73,1.87-1.64,1.87h-30.62c-.91,0-1.64-.84-1.64-1.87v-8.73c0-1.03.73-1.87,1.64-1.87Z"/>
        <path id="p2" class="cls-17" d="m169.29,40.16h31.17c.91,0,1.64.84,1.64,1.87v8.73c0,1.03-.73,1.87-1.64,1.87h-31.17c-.91,0-1.64-.84-1.64-1.87v-8.73c0-1.03.73-1.87,1.64-1.87Z"/>
        <path id="p3" class="cls-17" d="m203.74,55.12h30.62c.91,0,1.64.84,1.64,1.87v8.73c0,1.03-.73,1.87-1.64,1.87h-30.62c-.91,0-1.64-.84-1.64-1.87v-8.73c0-1.03.73-1.87,1.64-1.87Z"/>
        <path id="d1" class="cls-17" d="m237.65,70.08h30.62c.91,0,1.64.84,1.64,1.87v8.73c0,1.03-.73,1.87-1.64,1.87h-30.62c-.91,0-1.64-.84-1.64-1.87v-8.73c0-1.03.73-1.87,1.64-1.87Z"/>
        <path id="d2" class="cls-17" d="m271.55,85.04h30.62c.91,0,1.64.84,1.64,1.87v8.73c0,1.03-.73,1.87-1.64,1.87h-30.62c-.91,0-1.64-.84-1.64-1.87v-8.73c0-1.03.73-1.87,1.64-1.87Z"/>
        <path id="d3" class="cls-17" d="m305.46,100h31.17c.91,0,1.64.84,1.64,1.87v8.73c0,1.03-.73,1.87-1.64,1.87h-31.17c-.91,0-1.64-.84-1.64-1.87v-8.73c0-1.03.73-1.87,1.64-1.87Z"/>
        <path id="dev1" class="cls-17" d="m339.91,114.96h264.13c.91,0,1.64.84,1.64,1.87v8.73c0,1.03-.73,1.87-1.64,1.87h-264.13c-.91,0-1.64-.84-1.64-1.87v-8.73c0-1.03.73-1.87,1.64-1.87Z"/>
        <path id="dev2" class="cls-17" d="m339.91,129.92h264.13c.91,0,1.64.84,1.64,1.87v8.73c0,1.03-.73,1.87-1.64,1.87h-264.13c-.91,0-1.64-.84-1.64-1.87v-8.73c0-1.03.73-1.87,1.64-1.87Z"/>
        <path id="dev3" class="cls-17" d="m339.91,144.88h98.98c.91,0,1.64.84,1.64,1.87v8.73c0,1.03-.73,1.87-1.64,1.87h-98.98c-.91,0-1.64-.84-1.64-1.87v-8.73c0-1.03.73-1.87,1.64-1.87Z"/>
        <path id="dev4" class="cls-17" d="m442.17,159.84h69.45c.91,0,1.64.84,1.64,1.87v8.73c0,1.03-.73,1.87-1.64,1.87h-69.45c-.91,0-1.64-.84-1.64-1.87v-8.73c0-1.03.73-1.87,1.64-1.87Z"/>
        <path id="test1" class="cls-17" d="m514.9,174.8h30.62c.91,0,1.64.84,1.64,1.87v8.73c0,1.03-.73,1.87-1.64,1.87h-30.62c-.91,0-1.64-.84-1.64-1.87v-8.73c0-1.03.73-1.87,1.64-1.87Z"/>
        <path id="test2" class="cls-17" d="m548.8,189.76h31.17c.91,0,1.64.84,1.64,1.87v8.73c0,1.03-.73,1.87-1.64,1.87h-31.17c-.91,0-1.64-.84-1.64-1.87v-8.73c0-1.03.73-1.87,1.64-1.87Z"/>
        <path id="test3" class="cls-17" d="m583.26,204.72h30.62c.91,0,1.64.84,1.64,1.87v8.73c0,1.03-.73,1.87-1.64,1.87h-30.62c-.91,0-1.64-.84-1.64-1.87v-8.73c0-1.03.73-1.87,1.64-1.87Z"/>
        <path id="deploy1" class="cls-17" d="m617.16,219.67h30.62c.91,0,1.64.84,1.64,1.87v8.73c0,1.03-.73,1.87-1.64,1.87h-30.62c-.91,0-1.64-.84-1.64-1.87v-8.73c0-1.03.73-1.87,1.64-1.87Z"/>
        <path id="deploy2" class="cls-17" d="m651.06,234.63h30.62c.91,0,1.64.84,1.64,1.87v8.73c0,1.03-.73,1.87-1.64,1.87h-30.62c-.91,0-1.64-.84-1.64-1.87v-8.73c0-1.03.73-1.87,1.64-1.87Z"/>
        <path id="doc3" class="cls-17" d="m684.97,249.59h31.17c.91,0,1.64.84,1.64,1.87v8.73c0,1.03-.73,1.87-1.64,1.87h-31.17c-.91,0-1.64-.84-1.64-1.87v-8.73c0-1.03.73-1.87,1.64-1.87Z"/>
        <path id="f1" class="cls-17" d="m719.42,264.55h30.62c.91,0,1.64.84,1.64,1.87v8.73c0,1.03-.73,1.87-1.64,1.87h-30.62c-.91,0-1.64-.84-1.64-1.87v-8.73c0-1.03.73-1.87,1.64-1.87Z"/>
        <text id="p1-text" class="cls-2" transform="translate(170.38 33.62) scale(.88 1)"><tspan class="cls-26" x="0" y="0">P</tspan><tspan x="3.5" y="0">roject Planning</tspan></text>
        <text id="p2-text" class="cls-2" transform="translate(204.84 48.58) scale(.88 1)"><tspan class="cls-20" x="0" y="0">R</tspan><tspan x="3.71" y="0">equirements Gathering</tspan></text>
        <text id="p3-text" class="cls-2" transform="translate(238.74 63.54) scale(.88 1)"><tspan class="cls-20" x="0" y="0">R</tspan><tspan x="3.71" y="0">equirement Engineering</tspan></text>
        <text id="d1-text" class="cls-2" transform="translate(272.65 78.5) scale(.88 1)"><tspan x="0" y="0">System</tspan><tspan class="cls-19" x="21.6" y="0"> </tspan><tspan class="cls-21" x="23.29" y="0">Architecture</tspan></text>
        <text id="d2-text" class="cls-2" transform="translate(306.55 93.46) scale(.88 1)"><tspan x="0" y="0">UI/UX Design</tspan></text>
        <text id="d3-text" class="cls-2" transform="translate(341 108.42) scale(.88 1)"><tspan x="0" y="0">Database Design</tspan></text>
        <text id="dev1-text" class="cls-2" transform="translate(614.19 123.37) scale(.88 1)"><tspan x="0" y="0">Frontend Development</tspan></text>
        <text id="dev2-text" class="cls-2" transform="translate(615.1 138.33) scale(.88 1)"><tspan x="0" y="0">Backend Development</tspan></text>
        <text id="dev3-text" class="cls-2" transform="translate(458.4 153.29) scale(.88 1)"><tspan class="cls-18" x="0" y="0">W</tspan><tspan x="5.53" y="0">eb Scraping</tspan></text>
        <text id="dev4-text" class="cls-2" transform="translate(525.51 168.25) scale(.88 1)"><tspan x="0" y="0">AI Integration</tspan></text>
        <text id="test1-text" class="cls-2" transform="translate(561.29 183.21) scale(.88 1)"><tspan x="0" y="0">Unit</tspan><tspan class="cls-13" x="12.87" y="0"> </tspan><tspan class="cls-29" x="14.81" y="0">T</tspan><tspan x="17.93" y="0">esting</tspan></text>
        <text id="test2-text" class="cls-2" transform="translate(584.35 198.17) scale(.88 1)"><tspan x="0" y="0">Integration</tspan><tspan class="cls-13" x="33.92" y="0"> </tspan><tspan class="cls-29" x="35.86" y="0">T</tspan><tspan class="cls-14" x="38.99" y="0">esting</tspan></text>
        <text id="test3-text" class="cls-2" transform="translate(618.25 213.13) scale(.88 1)"><tspan x="0" y="0">User</tspan><tspan class="cls-10" x="13.63" y="0"> </tspan><tspan x="15.31" y="0">Acceptance</tspan><tspan class="cls-13" x="50.91" y="0"> </tspan><tspan class="cls-29" x="52.85" y="0">T</tspan><tspan x="55.97" y="0">esting</tspan></text>
        <text id="deploy1-text" class="cls-2" transform="translate(664.38 228.09) scale(.88 1)"><tspan x="0" y="0">Deployment</tspan></text>
        <text id="deploy2-text" class="cls-2" transform="translate(686.06 243.05) scale(.88 1)"><tspan class="cls-26" x="0" y="0">P</tspan><tspan x="3.5" y="0">ost-Deployment Support</tspan></text>
        <text id="doc3-text" class="cls-2" transform="translate(618.39 258.01) scale(.88 1)"><tspan class="cls-26" x="0" y="0">P</tspan><tspan x="3.5" y="0">roject Documentation</tspan></text>
        <text id="f1-text" class="cls-2" transform="translate(660.59 272.97) scale(.88 1)"><tspan x="0" y="0">Feedback &amp;</tspan><tspan class="cls-15" x="36.08" y="0"> </tspan><tspan class="cls-30" x="37.77" y="0">Analysis</tspan></text>
      </g>
      <g>
        <g class="cls-4">
          <text class="cls-7" transform="translate(6.23 47.64)"><tspan x="0" y="0">Sprint 1: Planning &amp; </tspan><tspan class="cls-32" x="63.54" y="0">R</tspan><tspan x="67.25" y="0">equirements</tspan></text>
        </g>
        <g class="cls-4">
          <text class="cls-7" transform="translate(6.23 92.52)"><tspan x="0" y="0">Sprint 2: Design</tspan></text>
        </g>
        <g class="cls-4">
          <text class="cls-7" transform="translate(6.23 137.4)"><tspan x="0" y="0">Sprint 3: Development</tspan></text>
        </g>
        <g class="cls-4">
          <text class="cls-7" transform="translate(6.23 182.28)"><tspan x="0" y="0">Sprint 4:</tspan><tspan class="cls-27" x="26.4" y="0"> </tspan><tspan x="28.08" y="0">AI Integration &amp;</tspan><tspan class="cls-31" x="76.95" y="0"> </tspan><tspan class="cls-9" x="78.9" y="0">T</tspan><tspan class="cls-22" x="82.03" y="0">esting</tspan></text>
        </g>
        <g class="cls-4">
          <text class="cls-7" transform="translate(6.23 219.67)"><tspan x="0" y="0">Sprint 5: Deployment &amp; Documentation</tspan></text>
        </g>
        <g class="cls-4">
          <text class="cls-7" transform="translate(6.23 257.07)"><tspan x="0" y="0">Sprint 6: </tspan><tspan class="cls-28" x="28.46" y="0">P</tspan><tspan x="31.97" y="0">ost-Deployment &amp; Feedback</tspan></text>
        </g>
      </g>
      <text class="cls-3" transform="translate(335.75 9.62)"><tspan x="0" y="0">Dro</tspan><tspan class="cls-12" x="17.26" y="0">P</tspan><tspan x="22.99" y="0">ilot </tspan><tspan class="cls-12" x="43.35" y="0">P</tspan><tspan x="49.08" y="0">roject</tspan><tspan class="cls-1" x="79.7" y="0"> </tspan><tspan class="cls-11" x="82.87" y="0">T</tspan><tspan class="cls-25" x="88.92" y="0">imeline</tspan></text>
    </g>
  </g>
</svg>